<?xml version="1.0" encoding="UTF-8" standalone="no"?> <svg xmlns="http://www.w3.org/2000/svg" xmlns:xlink="http://www.w3.org/1999/xlink" xmlns:serif="http://www.serif.com/" width="100%" height="100%" viewBox="0 0 744 110" version="1.1" xml:space="preserve" style="fill-rule:evenodd;clip-rule:evenodd;stroke-linejoin:round;stroke-miterlimit:2;"> <g transform="matrix(1,0,0,1,-67.6237,-129.881)"> <g transform="matrix(150,0,0,150,50.5582,233.812)"> <path d="M1.215,-0.508C1.215,-0.491 1.213,-0.472 1.208,-0.452C1.203,-0.432 1.199,-0.422 1.195,-0.422C1.192,-0.422 1.19,-0.424 1.19,-0.427C1.19,-0.428 1.19,-0.429 1.191,-0.431C1.2,-0.454 1.204,-0.479 1.204,-0.505C1.204,-0.546 1.192,-0.579 1.167,-0.604C1.143,-0.629 1.111,-0.641 1.071,-0.641C1.016,-0.641 0.96,-0.623 0.904,-0.588C0.952,-0.549 0.976,-0.508 0.976,-0.463C0.976,-0.425 0.961,-0.392 0.93,-0.365C0.9,-0.339 0.86,-0.322 0.81,-0.316C0.844,-0.296 0.861,-0.268 0.861,-0.231C0.861,-0.206 0.852,-0.169 0.835,-0.118C0.824,-0.085 0.818,-0.059 0.818,-0.04C0.818,-0.021 0.825,-0.004 0.839,0.01C0.853,0.023 0.87,0.03 0.89,0.03C0.911,0.03 0.931,0.023 0.949,0.009C0.953,0.006 0.956,0.005 0.958,0.005C0.961,0.005 0.962,0.006 0.962,0.009C0.962,0.014 0.953,0.021 0.935,0.028C0.916,0.035 0.901,0.039 0.887,0.039C0.856,0.039 0.83,0.027 0.809,0.002C0.787,-0.023 0.777,-0.054 0.777,-0.091C0.777,-0.118 0.789,-0.165 0.812,-0.232C0.818,-0.249 0.821,-0.264 0.821,-0.276C0.821,-0.291 0.814,-0.304 0.802,-0.315C0.781,-0.313 0.769,-0.312 0.766,-0.312C0.734,-0.312 0.718,-0.316 0.718,-0.324C0.718,-0.329 0.726,-0.332 0.742,-0.332C0.761,-0.332 0.781,-0.328 0.8,-0.321C0.839,-0.327 0.87,-0.345 0.895,-0.375C0.92,-0.405 0.932,-0.44 0.932,-0.48C0.932,-0.512 0.92,-0.542 0.895,-0.572L0.89,-0.578C0.819,-0.525 0.751,-0.432 0.688,-0.299C0.65,-0.218 0.614,-0.16 0.583,-0.125C0.551,-0.09 0.506,-0.057 0.448,-0.029C0.38,0.004 0.319,0.021 0.266,0.021C0.222,0.021 0.186,0.011 0.157,-0.009C0.128,-0.029 0.114,-0.054 0.114,-0.084C0.114,-0.101 0.119,-0.115 0.129,-0.127C0.139,-0.139 0.15,-0.145 0.164,-0.145C0.184,-0.145 0.194,-0.134 0.194,-0.112C0.194,-0.101 0.191,-0.091 0.184,-0.083C0.177,-0.076 0.169,-0.072 0.159,-0.072C0.142,-0.072 0.134,-0.081 0.135,-0.098C0.135,-0.105 0.134,-0.109 0.133,-0.109C0.128,-0.109 0.125,-0.1 0.125,-0.083C0.125,-0.056 0.138,-0.034 0.165,-0.016C0.191,0.002 0.225,0.011 0.265,0.011C0.336,0.011 0.401,-0.015 0.459,-0.068C0.484,-0.091 0.506,-0.115 0.524,-0.139C0.543,-0.165 0.586,-0.228 0.652,-0.328C0.685,-0.378 0.723,-0.427 0.768,-0.477C0.813,-0.527 0.851,-0.563 0.882,-0.584C0.831,-0.627 0.757,-0.649 0.658,-0.649C0.521,-0.649 0.401,-0.599 0.3,-0.5C0.216,-0.419 0.175,-0.342 0.175,-0.27C0.175,-0.234 0.187,-0.205 0.21,-0.183C0.233,-0.162 0.265,-0.151 0.305,-0.151C0.371,-0.151 0.438,-0.182 0.508,-0.245C0.578,-0.308 0.613,-0.369 0.613,-0.428C0.613,-0.475 0.589,-0.499 0.54,-0.499C0.492,-0.499 0.44,-0.472 0.384,-0.418C0.329,-0.364 0.301,-0.313 0.301,-0.265C0.301,-0.253 0.305,-0.243 0.313,-0.235C0.32,-0.226 0.329,-0.222 0.34,-0.222C0.345,-0.222 0.348,-0.221 0.348,-0.218C0.348,-0.215 0.345,-0.214 0.339,-0.214C0.323,-0.214 0.31,-0.221 0.299,-0.235C0.289,-0.249 0.283,-0.267 0.283,-0.287C0.283,-0.338 0.311,-0.387 0.367,-0.436C0.422,-0.484 0.479,-0.508 0.538,-0.508C0.594,-0.508 0.622,-0.482 0.622,-0.43C0.622,-0.367 0.586,-0.303 0.515,-0.239C0.444,-0.174 0.374,-0.142 0.304,-0.142C0.259,-0.142 0.223,-0.156 0.196,-0.183C0.168,-0.21 0.155,-0.246 0.155,-0.292C0.155,-0.384 0.207,-0.468 0.311,-0.544C0.415,-0.62 0.53,-0.658 0.656,-0.658C0.751,-0.658 0.832,-0.637 0.897,-0.594C0.957,-0.631 1.014,-0.65 1.07,-0.65C1.113,-0.65 1.149,-0.637 1.175,-0.611C1.202,-0.585 1.215,-0.55 1.215,-0.508Z" style="fill:rgb(0,160,161);fill-rule:nonzero;"></path> </g> <g transform="matrix(150,0,0,150,189.279,233.812)"> <path d="M0.38,-0.154C0.38,-0.149 0.37,-0.136 0.351,-0.117C0.322,-0.089 0.296,-0.074 0.272,-0.074C0.262,-0.074 0.253,-0.076 0.245,-0.08C0.202,-0.019 0.162,0.011 0.124,0.011C0.104,0.011 0.088,0.003 0.074,-0.013C0.06,-0.029 0.053,-0.048 0.053,-0.071C0.053,-0.121 0.086,-0.169 0.152,-0.216C0.198,-0.249 0.236,-0.265 0.266,-0.265C0.294,-0.265 0.308,-0.25 0.308,-0.22C0.308,-0.183 0.288,-0.138 0.249,-0.085C0.256,-0.081 0.263,-0.079 0.271,-0.079C0.286,-0.079 0.303,-0.086 0.322,-0.1C0.342,-0.113 0.358,-0.13 0.37,-0.149C0.374,-0.153 0.376,-0.156 0.378,-0.156C0.379,-0.156 0.38,-0.155 0.38,-0.154ZM0.301,-0.219C0.301,-0.246 0.289,-0.259 0.265,-0.259C0.236,-0.259 0.199,-0.23 0.157,-0.174C0.114,-0.117 0.093,-0.069 0.093,-0.031C0.093,-0.008 0.104,0.003 0.125,0.003C0.16,0.003 0.199,-0.026 0.24,-0.084C0.231,-0.094 0.226,-0.105 0.226,-0.116C0.226,-0.132 0.232,-0.149 0.245,-0.166C0.258,-0.182 0.27,-0.191 0.282,-0.191C0.287,-0.191 0.291,-0.188 0.293,-0.181C0.298,-0.193 0.301,-0.205 0.301,-0.219Z" style="fill:rgb(0,160,161);fill-rule:nonzero;"></path> </g> <g transform="matrix(150,0,0,150,232.785,233.812)"> <path d="M0.256,-0.343C0.256,-0.33 0.236,-0.304 0.195,-0.265C0.193,-0.255 0.192,-0.246 0.192,-0.239C0.192,-0.22 0.201,-0.19 0.218,-0.149C0.227,-0.128 0.231,-0.111 0.231,-0.097C0.231,-0.068 0.217,-0.042 0.188,-0.021C0.16,0 0.126,0.011 0.087,0.011C0.065,0.011 0.047,0.005 0.034,-0.008C0.021,-0.02 0.014,-0.037 0.014,-0.058C0.014,-0.083 0.023,-0.106 0.04,-0.129C0.058,-0.153 0.076,-0.164 0.094,-0.164C0.097,-0.164 0.1,-0.163 0.103,-0.162L0.142,-0.21C0.154,-0.224 0.169,-0.243 0.189,-0.268C0.194,-0.291 0.203,-0.31 0.214,-0.327C0.226,-0.343 0.237,-0.351 0.248,-0.351C0.253,-0.351 0.256,-0.348 0.256,-0.343ZM0.188,-0.15C0.188,-0.16 0.188,-0.169 0.187,-0.179C0.186,-0.189 0.186,-0.202 0.186,-0.22C0.186,-0.235 0.187,-0.247 0.188,-0.257C0.17,-0.234 0.143,-0.201 0.109,-0.159C0.115,-0.154 0.118,-0.148 0.118,-0.14C0.118,-0.121 0.102,-0.108 0.071,-0.101C0.058,-0.098 0.047,-0.091 0.038,-0.08C0.029,-0.069 0.024,-0.058 0.024,-0.046C0.024,-0.033 0.029,-0.022 0.038,-0.013C0.048,-0.004 0.059,-0 0.073,-0C0.101,-0 0.127,-0.016 0.151,-0.048C0.176,-0.079 0.188,-0.113 0.188,-0.15Z" style="fill:rgb(0,160,161);fill-rule:nonzero;"></path> </g> <g transform="matrix(150,0,0,150,262.008,233.812)"> <path d="M0.337,-0.153C0.337,-0.152 0.334,-0.148 0.328,-0.14L0.307,-0.114C0.24,-0.03 0.182,0.011 0.134,0.011C0.111,0.011 0.092,0.003 0.076,-0.013C0.061,-0.03 0.053,-0.05 0.053,-0.075C0.053,-0.134 0.094,-0.185 0.176,-0.23C0.219,-0.253 0.254,-0.265 0.281,-0.265C0.292,-0.265 0.302,-0.262 0.311,-0.255C0.319,-0.248 0.323,-0.239 0.323,-0.229C0.323,-0.206 0.308,-0.186 0.277,-0.169C0.247,-0.153 0.196,-0.137 0.124,-0.123C0.102,-0.09 0.091,-0.062 0.091,-0.039C0.091,-0.011 0.106,0.003 0.136,0.003C0.188,0.003 0.251,-0.047 0.325,-0.148C0.329,-0.153 0.332,-0.156 0.335,-0.156C0.336,-0.155 0.337,-0.154 0.337,-0.153ZM0.296,-0.243C0.296,-0.254 0.29,-0.259 0.279,-0.259C0.262,-0.259 0.239,-0.247 0.211,-0.223C0.183,-0.199 0.155,-0.168 0.128,-0.13C0.175,-0.142 0.215,-0.159 0.247,-0.181C0.28,-0.203 0.296,-0.224 0.296,-0.243Z" style="fill:rgb(0,160,161);fill-rule:nonzero;"></path> </g> <g transform="matrix(150,0,0,150,298.922,233.812)"> <path d="M0.347,-0.499C0.21,-0.271 0.131,-0.138 0.108,-0.098C0.086,-0.058 0.074,-0.031 0.074,-0.018C0.074,-0.003 0.08,0.004 0.093,0.004C0.12,0.004 0.17,-0.048 0.243,-0.151C0.245,-0.154 0.247,-0.156 0.249,-0.156C0.25,-0.155 0.251,-0.154 0.251,-0.153C0.251,-0.151 0.249,-0.148 0.246,-0.145L0.225,-0.116C0.164,-0.031 0.118,0.011 0.089,0.011C0.075,0.011 0.063,0.006 0.054,-0.005C0.045,-0.015 0.041,-0.029 0.041,-0.045C0.041,-0.063 0.045,-0.08 0.053,-0.097C0.062,-0.114 0.09,-0.162 0.138,-0.242C0.197,-0.34 0.247,-0.425 0.287,-0.497C0.297,-0.494 0.306,-0.493 0.313,-0.493C0.325,-0.493 0.337,-0.495 0.347,-0.499Z" style="fill:rgb(0,160,161);fill-rule:nonzero;"></path> </g> <g transform="matrix(150,0,0,150,322.946,233.812)"> <path d="M0.434,-0.153C0.434,-0.146 0.41,-0.114 0.363,-0.058C0.324,-0.012 0.294,0.011 0.272,0.011C0.257,0.011 0.245,0.006 0.235,-0.006C0.226,-0.017 0.221,-0.031 0.221,-0.048C0.221,-0.065 0.226,-0.084 0.237,-0.105C0.204,-0.059 0.179,-0.029 0.162,-0.013C0.145,0.003 0.128,0.011 0.112,0.011C0.095,0.011 0.08,0.004 0.068,-0.011C0.057,-0.026 0.051,-0.044 0.051,-0.067C0.051,-0.129 0.095,-0.185 0.183,-0.233C0.222,-0.254 0.253,-0.265 0.277,-0.265C0.297,-0.265 0.307,-0.255 0.307,-0.236C0.307,-0.23 0.306,-0.223 0.303,-0.214L0.328,-0.261C0.338,-0.259 0.347,-0.258 0.354,-0.258C0.363,-0.258 0.374,-0.259 0.388,-0.261L0.302,-0.118C0.272,-0.068 0.257,-0.035 0.257,-0.019C0.257,-0.004 0.263,0.004 0.276,0.004C0.289,0.004 0.31,-0.011 0.338,-0.041C0.367,-0.071 0.396,-0.107 0.426,-0.151C0.428,-0.154 0.43,-0.156 0.431,-0.156C0.433,-0.156 0.434,-0.155 0.434,-0.153ZM0.3,-0.234C0.3,-0.25 0.292,-0.258 0.278,-0.258C0.248,-0.258 0.209,-0.229 0.16,-0.17C0.111,-0.111 0.087,-0.064 0.087,-0.028C0.087,-0.007 0.096,0.004 0.115,0.004C0.138,0.004 0.177,-0.033 0.232,-0.108C0.277,-0.169 0.3,-0.211 0.3,-0.234Z" style="fill:rgb(0,160,161);fill-rule:nonzero;"></path> </g> <g transform="matrix(150,0,0,150,374.582,233.812)"> <path d="M0.482,-0.153C0.482,-0.146 0.458,-0.114 0.411,-0.058C0.372,-0.012 0.342,0.011 0.32,0.011C0.305,0.011 0.293,0.006 0.283,-0.006C0.273,-0.017 0.268,-0.031 0.268,-0.048C0.268,-0.063 0.271,-0.076 0.277,-0.089C0.283,-0.101 0.299,-0.126 0.324,-0.163C0.351,-0.202 0.364,-0.227 0.364,-0.238C0.364,-0.251 0.357,-0.258 0.343,-0.258C0.295,-0.258 0.222,-0.17 0.123,0.007C0.107,0.006 0.097,0.005 0.094,0.005C0.083,0.005 0.072,0.006 0.062,0.007L0.138,-0.114C0.181,-0.183 0.203,-0.226 0.203,-0.243C0.203,-0.253 0.199,-0.258 0.191,-0.258C0.174,-0.258 0.142,-0.223 0.093,-0.153C0.09,-0.149 0.088,-0.146 0.086,-0.146C0.084,-0.146 0.083,-0.147 0.083,-0.149C0.083,-0.151 0.084,-0.152 0.085,-0.153L0.094,-0.165C0.144,-0.232 0.178,-0.265 0.195,-0.265C0.206,-0.265 0.215,-0.26 0.223,-0.25C0.231,-0.24 0.235,-0.228 0.235,-0.214C0.235,-0.193 0.223,-0.164 0.198,-0.127C0.237,-0.18 0.266,-0.216 0.287,-0.236C0.308,-0.255 0.327,-0.265 0.344,-0.265C0.359,-0.265 0.371,-0.259 0.38,-0.248C0.39,-0.236 0.395,-0.221 0.395,-0.204C0.395,-0.182 0.38,-0.149 0.35,-0.104C0.319,-0.058 0.304,-0.029 0.304,-0.016C0.304,-0.003 0.311,0.004 0.324,0.004C0.353,0.004 0.403,-0.048 0.474,-0.151C0.476,-0.154 0.477,-0.156 0.479,-0.156C0.481,-0.156 0.482,-0.155 0.482,-0.153Z" style="fill:rgb(0,160,161);fill-rule:nonzero;"></path> </g> <g transform="matrix(150,0,0,150,433.249,233.812)"> <path d="M0.534,-0.494C0.412,-0.3 0.335,-0.176 0.303,-0.122C0.271,-0.067 0.255,-0.032 0.255,-0.018C0.255,-0.003 0.262,0.004 0.275,0.004C0.305,0.004 0.355,-0.048 0.426,-0.151C0.428,-0.154 0.43,-0.156 0.431,-0.156C0.433,-0.156 0.434,-0.155 0.434,-0.153C0.434,-0.152 0.432,-0.149 0.429,-0.145L0.408,-0.116C0.347,-0.031 0.301,0.011 0.272,0.011C0.257,0.011 0.245,0.006 0.235,-0.006C0.226,-0.017 0.221,-0.031 0.221,-0.049C0.221,-0.066 0.227,-0.087 0.239,-0.11C0.182,-0.029 0.139,0.011 0.112,0.011C0.095,0.011 0.08,0.004 0.068,-0.011C0.057,-0.026 0.051,-0.044 0.051,-0.067C0.051,-0.121 0.084,-0.169 0.151,-0.213C0.204,-0.248 0.246,-0.265 0.276,-0.265C0.296,-0.265 0.306,-0.255 0.306,-0.236C0.306,-0.227 0.303,-0.216 0.298,-0.205L0.472,-0.497C0.483,-0.494 0.493,-0.492 0.504,-0.492C0.507,-0.492 0.517,-0.493 0.534,-0.494ZM0.299,-0.232C0.299,-0.249 0.291,-0.258 0.275,-0.258C0.246,-0.258 0.207,-0.229 0.159,-0.17C0.111,-0.112 0.087,-0.065 0.087,-0.029C0.087,-0.007 0.096,0.004 0.114,0.004C0.14,0.004 0.185,-0.041 0.248,-0.132C0.282,-0.181 0.299,-0.214 0.299,-0.232Z" style="fill:rgb(0,160,161);fill-rule:nonzero;"></path> </g> <g transform="matrix(150,0,0,150,511.398,233.812)"> <path d="M1.365,-0.525C1.365,-0.473 1.334,-0.429 1.271,-0.394C1.244,-0.379 1.225,-0.371 1.215,-0.371C1.212,-0.371 1.211,-0.372 1.211,-0.375C1.211,-0.377 1.216,-0.379 1.225,-0.383C1.262,-0.397 1.291,-0.418 1.314,-0.444C1.338,-0.471 1.349,-0.498 1.349,-0.526C1.349,-0.552 1.34,-0.573 1.322,-0.589C1.304,-0.606 1.281,-0.614 1.252,-0.614C1.159,-0.614 1.076,-0.56 1.002,-0.453C0.989,-0.435 0.951,-0.363 0.886,-0.239C0.816,-0.105 0.734,-0.023 0.639,0.008C0.667,0.011 0.69,0.013 0.706,0.013C0.765,0.013 0.816,-0.006 0.857,-0.045C0.893,-0.078 0.925,-0.117 0.954,-0.161C0.958,-0.166 0.96,-0.168 0.962,-0.168C0.963,-0.168 0.964,-0.167 0.964,-0.166C0.964,-0.163 0.949,-0.141 0.918,-0.102C0.882,-0.056 0.849,-0.024 0.819,-0.006C0.788,0.011 0.752,0.02 0.708,0.02C0.681,0.02 0.652,0.018 0.62,0.013C0.596,0.02 0.574,0.023 0.554,0.023C0.537,0.023 0.529,0.019 0.529,0.012C0.529,0.004 0.542,-0 0.569,-0C0.584,-0 0.603,0.002 0.625,0.006C0.668,-0.013 0.701,-0.036 0.723,-0.064C0.747,-0.094 0.783,-0.157 0.831,-0.252L0.839,-0.268L0.649,-0.268C0.618,-0.211 0.592,-0.169 0.569,-0.142C0.547,-0.114 0.517,-0.088 0.479,-0.062C0.396,-0.005 0.316,0.023 0.239,0.023C0.194,0.023 0.157,0.013 0.129,-0.006C0.101,-0.025 0.087,-0.049 0.087,-0.08C0.087,-0.096 0.092,-0.11 0.101,-0.122C0.111,-0.133 0.123,-0.139 0.136,-0.139C0.157,-0.139 0.168,-0.128 0.168,-0.107C0.168,-0.097 0.165,-0.088 0.158,-0.08C0.152,-0.073 0.144,-0.069 0.134,-0.069C0.118,-0.069 0.111,-0.076 0.111,-0.092C0.112,-0.1 0.111,-0.104 0.108,-0.104C0.102,-0.104 0.099,-0.095 0.099,-0.078C0.099,-0.051 0.112,-0.03 0.137,-0.012C0.162,0.005 0.194,0.013 0.233,0.013C0.302,0.013 0.362,-0.007 0.413,-0.048C0.465,-0.089 0.523,-0.162 0.589,-0.268L0.439,-0.268L0.443,-0.278L0.595,-0.278C0.599,-0.284 0.606,-0.295 0.615,-0.309C0.684,-0.42 0.748,-0.497 0.808,-0.541C0.821,-0.55 0.838,-0.561 0.859,-0.572C0.88,-0.582 0.893,-0.588 0.898,-0.588C0.9,-0.587 0.901,-0.586 0.901,-0.584C0.901,-0.582 0.898,-0.58 0.891,-0.577C0.851,-0.561 0.815,-0.533 0.784,-0.493C0.752,-0.453 0.709,-0.382 0.654,-0.278L0.844,-0.278C0.905,-0.387 0.971,-0.471 1.043,-0.531C1.114,-0.592 1.184,-0.622 1.252,-0.622C1.285,-0.622 1.313,-0.613 1.334,-0.595C1.355,-0.577 1.365,-0.554 1.365,-0.525ZM0.732,-0.513C0.732,-0.506 0.722,-0.493 0.703,-0.472C0.674,-0.441 0.647,-0.426 0.621,-0.426C0.603,-0.426 0.587,-0.432 0.575,-0.446C0.562,-0.459 0.556,-0.475 0.556,-0.494C0.556,-0.512 0.563,-0.534 0.576,-0.561C0.593,-0.594 0.601,-0.617 0.601,-0.63C0.601,-0.646 0.593,-0.66 0.578,-0.67C0.562,-0.68 0.542,-0.685 0.516,-0.685C0.444,-0.685 0.375,-0.656 0.312,-0.597C0.248,-0.539 0.216,-0.477 0.216,-0.41C0.216,-0.376 0.226,-0.348 0.247,-0.326C0.268,-0.305 0.295,-0.294 0.328,-0.294C0.392,-0.294 0.446,-0.324 0.49,-0.383C0.491,-0.385 0.492,-0.386 0.493,-0.386C0.496,-0.386 0.497,-0.385 0.497,-0.382C0.497,-0.375 0.487,-0.362 0.466,-0.344C0.423,-0.306 0.376,-0.286 0.326,-0.286C0.291,-0.286 0.262,-0.298 0.24,-0.32C0.218,-0.343 0.207,-0.373 0.207,-0.409C0.207,-0.479 0.24,-0.544 0.305,-0.604C0.37,-0.663 0.442,-0.693 0.519,-0.693C0.587,-0.693 0.621,-0.663 0.621,-0.603C0.621,-0.583 0.614,-0.558 0.6,-0.529C0.586,-0.501 0.579,-0.482 0.579,-0.472C0.579,-0.447 0.592,-0.435 0.619,-0.435C0.635,-0.435 0.654,-0.443 0.675,-0.458C0.696,-0.473 0.712,-0.491 0.723,-0.512C0.725,-0.515 0.726,-0.517 0.728,-0.517C0.731,-0.517 0.732,-0.516 0.732,-0.513Z" style="fill:rgb(0,160,161);fill-rule:nonzero;"></path> </g> <g transform="matrix(150,0,0,150,640.817,233.812)"> <path d="M0.38,-0.154C0.38,-0.149 0.37,-0.136 0.351,-0.117C0.322,-0.089 0.296,-0.074 0.272,-0.074C0.262,-0.074 0.253,-0.076 0.245,-0.08C0.202,-0.019 0.162,0.011 0.124,0.011C0.104,0.011 0.088,0.003 0.074,-0.013C0.06,-0.029 0.053,-0.048 0.053,-0.071C0.053,-0.121 0.086,-0.169 0.152,-0.216C0.198,-0.249 0.236,-0.265 0.266,-0.265C0.294,-0.265 0.308,-0.25 0.308,-0.22C0.308,-0.183 0.288,-0.138 0.249,-0.085C0.256,-0.081 0.263,-0.079 0.271,-0.079C0.286,-0.079 0.303,-0.086 0.322,-0.1C0.342,-0.113 0.358,-0.13 0.37,-0.149C0.374,-0.153 0.376,-0.156 0.378,-0.156C0.379,-0.156 0.38,-0.155 0.38,-0.154ZM0.301,-0.219C0.301,-0.246 0.289,-0.259 0.265,-0.259C0.236,-0.259 0.199,-0.23 0.157,-0.174C0.114,-0.117 0.093,-0.069 0.093,-0.031C0.093,-0.008 0.104,0.003 0.125,0.003C0.16,0.003 0.199,-0.026 0.24,-0.084C0.231,-0.094 0.226,-0.105 0.226,-0.116C0.226,-0.132 0.232,-0.149 0.245,-0.166C0.258,-0.182 0.27,-0.191 0.282,-0.191C0.287,-0.191 0.291,-0.188 0.293,-0.181C0.298,-0.193 0.301,-0.205 0.301,-0.219Z" style="fill:rgb(0,160,161);fill-rule:nonzero;"></path> </g> <g transform="matrix(150,0,0,150,684.323,233.812)"> <path d="M0.404,-0.153C0.404,-0.145 0.38,-0.114 0.333,-0.058C0.294,-0.012 0.263,0.011 0.24,0.011C0.226,0.011 0.214,0.005 0.204,-0.006C0.194,-0.018 0.189,-0.032 0.189,-0.048C0.189,-0.061 0.195,-0.078 0.208,-0.101L0.198,-0.088C0.168,-0.049 0.146,-0.024 0.132,-0.011C0.117,0.004 0.103,0.011 0.089,0.011C0.075,0.011 0.063,0.006 0.053,-0.006C0.043,-0.017 0.038,-0.031 0.038,-0.047C0.038,-0.066 0.045,-0.087 0.06,-0.112L0.149,-0.261C0.16,-0.259 0.169,-0.258 0.175,-0.258C0.181,-0.258 0.192,-0.259 0.208,-0.261L0.092,-0.07C0.08,-0.05 0.074,-0.033 0.074,-0.018C0.074,-0.003 0.08,0.004 0.093,0.004C0.126,0.004 0.178,-0.057 0.251,-0.18L0.299,-0.261C0.309,-0.259 0.317,-0.258 0.324,-0.258C0.332,-0.258 0.344,-0.259 0.359,-0.261L0.281,-0.134C0.244,-0.073 0.225,-0.034 0.225,-0.017C0.225,-0.003 0.232,0.004 0.245,0.004C0.271,0.004 0.313,-0.037 0.372,-0.119L0.387,-0.14L0.396,-0.151C0.398,-0.154 0.399,-0.156 0.401,-0.156C0.403,-0.156 0.404,-0.155 0.404,-0.153Z" style="fill:rgb(0,160,161);fill-rule:nonzero;"></path> </g> <g transform="matrix(150,0,0,150,731.271,233.812)"> <path d="M0.256,-0.343C0.256,-0.33 0.236,-0.304 0.195,-0.265C0.193,-0.255 0.192,-0.246 0.192,-0.239C0.192,-0.22 0.201,-0.19 0.218,-0.149C0.227,-0.128 0.231,-0.111 0.231,-0.097C0.231,-0.068 0.217,-0.042 0.188,-0.021C0.16,0 0.126,0.011 0.087,0.011C0.065,0.011 0.047,0.005 0.034,-0.008C0.021,-0.02 0.014,-0.037 0.014,-0.058C0.014,-0.083 0.023,-0.106 0.04,-0.129C0.058,-0.153 0.076,-0.164 0.094,-0.164C0.097,-0.164 0.1,-0.163 0.103,-0.162L0.142,-0.21C0.154,-0.224 0.169,-0.243 0.189,-0.268C0.194,-0.291 0.203,-0.31 0.214,-0.327C0.226,-0.343 0.237,-0.351 0.248,-0.351C0.253,-0.351 0.256,-0.348 0.256,-0.343ZM0.188,-0.15C0.188,-0.16 0.188,-0.169 0.187,-0.179C0.186,-0.189 0.186,-0.202 0.186,-0.22C0.186,-0.235 0.187,-0.247 0.188,-0.257C0.17,-0.234 0.143,-0.201 0.109,-0.159C0.115,-0.154 0.118,-0.148 0.118,-0.14C0.118,-0.121 0.102,-0.108 0.071,-0.101C0.058,-0.098 0.047,-0.091 0.038,-0.08C0.029,-0.069 0.024,-0.058 0.024,-0.046C0.024,-0.033 0.029,-0.022 0.038,-0.013C0.048,-0.004 0.059,-0 0.073,-0C0.101,-0 0.127,-0.016 0.151,-0.048C0.176,-0.079 0.188,-0.113 0.188,-0.15Z" style="fill:rgb(0,160,161);fill-rule:nonzero;"></path> </g> <g transform="matrix(150,0,0,150,760.495,233.812)"> <path d="M0.337,-0.153C0.337,-0.152 0.334,-0.148 0.328,-0.14L0.307,-0.114C0.24,-0.03 0.182,0.011 0.134,0.011C0.111,0.011 0.092,0.003 0.076,-0.013C0.061,-0.03 0.053,-0.05 0.053,-0.075C0.053,-0.134 0.094,-0.185 0.176,-0.23C0.219,-0.253 0.254,-0.265 0.281,-0.265C0.292,-0.265 0.302,-0.262 0.311,-0.255C0.319,-0.248 0.323,-0.239 0.323,-0.229C0.323,-0.206 0.308,-0.186 0.277,-0.169C0.247,-0.153 0.196,-0.137 0.124,-0.123C0.102,-0.09 0.091,-0.062 0.091,-0.039C0.091,-0.011 0.106,0.003 0.136,0.003C0.188,0.003 0.251,-0.047 0.325,-0.148C0.329,-0.153 0.332,-0.156 0.335,-0.156C0.336,-0.155 0.337,-0.154 0.337,-0.153ZM0.296,-0.243C0.296,-0.254 0.29,-0.259 0.279,-0.259C0.262,-0.259 0.239,-0.247 0.211,-0.223C0.183,-0.199 0.155,-0.168 0.128,-0.13C0.175,-0.142 0.215,-0.159 0.247,-0.181C0.28,-0.203 0.296,-0.224 0.296,-0.243Z" style="fill:rgb(0,160,161);fill-rule:nonzero;"></path> </g> </g> </svg> 